<mxfile host="app.diagrams.net" modified="2024-03-05T23:31:28.241Z" agent="Mozilla/5.0 (Windows NT 10.0; Win64; x64) AppleWebKit/537.36 (KHTML, like Gecko) Chrome/120.0.0.0 Safari/537.36" etag="gFPx-Uxhjw7lmmlt9bOz" version="24.0.2" type="github">
  <diagram id="R2lEEEUBdFMjLlhIrx00" name="Page-1">
    <mxGraphModel dx="1434" dy="780" grid="1" gridSize="10" guides="1" tooltips="1" connect="1" arrows="0" fold="1" page="1" pageScale="1" pageWidth="10000" pageHeight="10000" math="0" shadow="0" extFonts="Permanent Marker^https://fonts.googleapis.com/css?family=Permanent+Marker">
      <root>
        <mxCell id="0" />
        <mxCell id="1" parent="0" />
        <mxCell id="OXciILcsvzSkTtV1qYaF-29" style="edgeStyle=orthogonalEdgeStyle;rounded=0;orthogonalLoop=1;jettySize=auto;html=1;exitX=0.5;exitY=0;exitDx=0;exitDy=0;entryX=0.5;entryY=1;entryDx=0;entryDy=0;strokeColor=default;align=center;verticalAlign=middle;fontFamily=Helvetica;fontSize=11;fontColor=default;labelBackgroundColor=default;endArrow=none;endFill=0;" edge="1" parent="1" source="OXciILcsvzSkTtV1qYaF-2" target="OXciILcsvzSkTtV1qYaF-28">
          <mxGeometry relative="1" as="geometry" />
        </mxCell>
        <mxCell id="OXciILcsvzSkTtV1qYaF-72" style="edgeStyle=orthogonalEdgeStyle;rounded=0;orthogonalLoop=1;jettySize=auto;html=1;exitX=1;exitY=0.5;exitDx=0;exitDy=0;entryX=0;entryY=0.5;entryDx=0;entryDy=0;strokeColor=default;align=center;verticalAlign=middle;fontFamily=Helvetica;fontSize=11;fontColor=default;labelBackgroundColor=default;endArrow=none;endFill=0;" edge="1" parent="1" source="OXciILcsvzSkTtV1qYaF-2" target="OXciILcsvzSkTtV1qYaF-68">
          <mxGeometry relative="1" as="geometry" />
        </mxCell>
        <mxCell id="OXciILcsvzSkTtV1qYaF-2" value="Product" style="rounded=1;arcSize=10;whiteSpace=wrap;html=1;align=center;" vertex="1" parent="1">
          <mxGeometry x="530" y="410" width="100" height="40" as="geometry" />
        </mxCell>
        <mxCell id="OXciILcsvzSkTtV1qYaF-38" style="edgeStyle=orthogonalEdgeStyle;rounded=0;orthogonalLoop=1;jettySize=auto;html=1;exitX=0.5;exitY=1;exitDx=0;exitDy=0;entryX=0.5;entryY=0;entryDx=0;entryDy=0;strokeColor=default;align=center;verticalAlign=middle;fontFamily=Helvetica;fontSize=11;fontColor=default;labelBackgroundColor=default;endArrow=none;endFill=0;" edge="1" parent="1" source="OXciILcsvzSkTtV1qYaF-4" target="OXciILcsvzSkTtV1qYaF-37">
          <mxGeometry relative="1" as="geometry" />
        </mxCell>
        <mxCell id="OXciILcsvzSkTtV1qYaF-39" style="edgeStyle=orthogonalEdgeStyle;rounded=0;orthogonalLoop=1;jettySize=auto;html=1;exitX=0.5;exitY=1;exitDx=0;exitDy=0;entryX=0.5;entryY=0;entryDx=0;entryDy=0;strokeColor=default;align=center;verticalAlign=middle;fontFamily=Helvetica;fontSize=11;fontColor=default;labelBackgroundColor=default;endArrow=none;endFill=0;" edge="1" parent="1" source="OXciILcsvzSkTtV1qYaF-4" target="OXciILcsvzSkTtV1qYaF-34">
          <mxGeometry relative="1" as="geometry" />
        </mxCell>
        <mxCell id="OXciILcsvzSkTtV1qYaF-40" style="edgeStyle=orthogonalEdgeStyle;rounded=0;orthogonalLoop=1;jettySize=auto;html=1;exitX=0.5;exitY=1;exitDx=0;exitDy=0;entryX=0.5;entryY=0;entryDx=0;entryDy=0;strokeColor=default;align=center;verticalAlign=middle;fontFamily=Helvetica;fontSize=11;fontColor=default;labelBackgroundColor=default;endArrow=none;endFill=0;" edge="1" parent="1" source="OXciILcsvzSkTtV1qYaF-4" target="OXciILcsvzSkTtV1qYaF-35">
          <mxGeometry relative="1" as="geometry" />
        </mxCell>
        <mxCell id="OXciILcsvzSkTtV1qYaF-41" style="edgeStyle=orthogonalEdgeStyle;rounded=0;orthogonalLoop=1;jettySize=auto;html=1;exitX=0.5;exitY=1;exitDx=0;exitDy=0;entryX=0.5;entryY=0;entryDx=0;entryDy=0;strokeColor=default;align=center;verticalAlign=middle;fontFamily=Helvetica;fontSize=11;fontColor=default;labelBackgroundColor=default;endArrow=none;endFill=0;" edge="1" parent="1" source="OXciILcsvzSkTtV1qYaF-4" target="OXciILcsvzSkTtV1qYaF-36">
          <mxGeometry relative="1" as="geometry" />
        </mxCell>
        <mxCell id="OXciILcsvzSkTtV1qYaF-44" style="edgeStyle=orthogonalEdgeStyle;rounded=0;orthogonalLoop=1;jettySize=auto;html=1;exitX=0.5;exitY=1;exitDx=0;exitDy=0;entryX=0.5;entryY=0;entryDx=0;entryDy=0;strokeColor=default;align=center;verticalAlign=middle;fontFamily=Helvetica;fontSize=11;fontColor=default;labelBackgroundColor=default;endArrow=none;endFill=0;" edge="1" parent="1" source="OXciILcsvzSkTtV1qYaF-4" target="OXciILcsvzSkTtV1qYaF-43">
          <mxGeometry relative="1" as="geometry" />
        </mxCell>
        <mxCell id="OXciILcsvzSkTtV1qYaF-4" value="Transaction" style="rounded=1;arcSize=10;whiteSpace=wrap;html=1;align=center;" vertex="1" parent="1">
          <mxGeometry x="530" y="630" width="100" height="40" as="geometry" />
        </mxCell>
        <mxCell id="OXciILcsvzSkTtV1qYaF-5" value="Customer" style="rounded=1;arcSize=10;whiteSpace=wrap;html=1;align=center;" vertex="1" parent="1">
          <mxGeometry x="230" y="630" width="100" height="40" as="geometry" />
        </mxCell>
        <mxCell id="OXciILcsvzSkTtV1qYaF-11" style="edgeStyle=orthogonalEdgeStyle;rounded=0;orthogonalLoop=1;jettySize=auto;html=1;exitX=0;exitY=0.5;exitDx=0;exitDy=0;entryX=1;entryY=0.5;entryDx=0;entryDy=0;endArrow=none;endFill=0;" edge="1" parent="1" source="OXciILcsvzSkTtV1qYaF-6" target="OXciILcsvzSkTtV1qYaF-5">
          <mxGeometry relative="1" as="geometry" />
        </mxCell>
        <mxCell id="OXciILcsvzSkTtV1qYaF-12" style="edgeStyle=orthogonalEdgeStyle;rounded=0;orthogonalLoop=1;jettySize=auto;html=1;exitX=1;exitY=0.5;exitDx=0;exitDy=0;entryX=0;entryY=0.5;entryDx=0;entryDy=0;endArrow=none;endFill=0;" edge="1" parent="1" source="OXciILcsvzSkTtV1qYaF-6" target="OXciILcsvzSkTtV1qYaF-4">
          <mxGeometry relative="1" as="geometry" />
        </mxCell>
        <mxCell id="OXciILcsvzSkTtV1qYaF-6" value="places" style="shape=rhombus;perimeter=rhombusPerimeter;whiteSpace=wrap;html=1;align=center;" vertex="1" parent="1">
          <mxGeometry x="365" y="620" width="120" height="60" as="geometry" />
        </mxCell>
        <mxCell id="OXciILcsvzSkTtV1qYaF-15" style="edgeStyle=orthogonalEdgeStyle;rounded=0;orthogonalLoop=1;jettySize=auto;html=1;exitX=0.5;exitY=0;exitDx=0;exitDy=0;entryX=0.5;entryY=1;entryDx=0;entryDy=0;strokeColor=default;align=center;verticalAlign=middle;fontFamily=Helvetica;fontSize=11;fontColor=default;labelBackgroundColor=default;endArrow=none;endFill=0;" edge="1" parent="1" source="OXciILcsvzSkTtV1qYaF-14" target="OXciILcsvzSkTtV1qYaF-2">
          <mxGeometry relative="1" as="geometry" />
        </mxCell>
        <mxCell id="OXciILcsvzSkTtV1qYaF-16" style="edgeStyle=orthogonalEdgeStyle;rounded=0;orthogonalLoop=1;jettySize=auto;html=1;exitX=0.5;exitY=1;exitDx=0;exitDy=0;entryX=0.5;entryY=0;entryDx=0;entryDy=0;strokeColor=default;align=center;verticalAlign=middle;fontFamily=Helvetica;fontSize=11;fontColor=default;labelBackgroundColor=default;endArrow=none;endFill=0;" edge="1" parent="1" source="OXciILcsvzSkTtV1qYaF-14" target="OXciILcsvzSkTtV1qYaF-4">
          <mxGeometry relative="1" as="geometry" />
        </mxCell>
        <mxCell id="OXciILcsvzSkTtV1qYaF-26" style="edgeStyle=orthogonalEdgeStyle;rounded=0;orthogonalLoop=1;jettySize=auto;html=1;exitX=0;exitY=0.5;exitDx=0;exitDy=0;strokeColor=default;align=center;verticalAlign=middle;fontFamily=Helvetica;fontSize=11;fontColor=default;labelBackgroundColor=default;endArrow=none;endFill=0;" edge="1" parent="1" source="OXciILcsvzSkTtV1qYaF-14" target="OXciILcsvzSkTtV1qYaF-25">
          <mxGeometry relative="1" as="geometry" />
        </mxCell>
        <mxCell id="OXciILcsvzSkTtV1qYaF-14" value="included_in" style="shape=rhombus;perimeter=rhombusPerimeter;whiteSpace=wrap;html=1;align=center;fontFamily=Helvetica;fontSize=11;fontColor=default;labelBackgroundColor=default;" vertex="1" parent="1">
          <mxGeometry x="520" y="500" width="120" height="60" as="geometry" />
        </mxCell>
        <mxCell id="OXciILcsvzSkTtV1qYaF-25" value="Quantity" style="ellipse;whiteSpace=wrap;html=1;align=center;fontFamily=Helvetica;fontSize=11;fontColor=default;labelBackgroundColor=default;" vertex="1" parent="1">
          <mxGeometry x="410" y="510" width="100" height="40" as="geometry" />
        </mxCell>
        <mxCell id="OXciILcsvzSkTtV1qYaF-46" style="edgeStyle=orthogonalEdgeStyle;rounded=0;orthogonalLoop=1;jettySize=auto;html=1;exitX=1;exitY=0.5;exitDx=0;exitDy=0;entryX=0;entryY=0.5;entryDx=0;entryDy=0;strokeColor=default;align=center;verticalAlign=middle;fontFamily=Helvetica;fontSize=11;fontColor=default;labelBackgroundColor=default;endArrow=none;endFill=0;" edge="1" parent="1" source="OXciILcsvzSkTtV1qYaF-27" target="OXciILcsvzSkTtV1qYaF-2">
          <mxGeometry relative="1" as="geometry" />
        </mxCell>
        <mxCell id="OXciILcsvzSkTtV1qYaF-47" style="edgeStyle=orthogonalEdgeStyle;rounded=0;orthogonalLoop=1;jettySize=auto;html=1;exitX=0;exitY=0.5;exitDx=0;exitDy=0;entryX=1;entryY=0.5;entryDx=0;entryDy=0;strokeColor=default;align=center;verticalAlign=middle;fontFamily=Helvetica;fontSize=11;fontColor=default;labelBackgroundColor=default;endArrow=none;endFill=0;" edge="1" parent="1" source="OXciILcsvzSkTtV1qYaF-27" target="OXciILcsvzSkTtV1qYaF-32">
          <mxGeometry relative="1" as="geometry" />
        </mxCell>
        <mxCell id="OXciILcsvzSkTtV1qYaF-27" value="belongs_to" style="shape=rhombus;perimeter=rhombusPerimeter;whiteSpace=wrap;html=1;align=center;fontFamily=Helvetica;fontSize=11;fontColor=default;labelBackgroundColor=default;" vertex="1" parent="1">
          <mxGeometry x="365" y="400" width="120" height="60" as="geometry" />
        </mxCell>
        <mxCell id="OXciILcsvzSkTtV1qYaF-31" style="edgeStyle=orthogonalEdgeStyle;rounded=0;orthogonalLoop=1;jettySize=auto;html=1;exitX=0.5;exitY=0;exitDx=0;exitDy=0;entryX=0.5;entryY=1;entryDx=0;entryDy=0;strokeColor=default;align=center;verticalAlign=middle;fontFamily=Helvetica;fontSize=11;fontColor=default;labelBackgroundColor=default;endArrow=none;endFill=0;" edge="1" parent="1" source="OXciILcsvzSkTtV1qYaF-28" target="OXciILcsvzSkTtV1qYaF-30">
          <mxGeometry relative="1" as="geometry" />
        </mxCell>
        <mxCell id="OXciILcsvzSkTtV1qYaF-28" value="supplied_by" style="shape=rhombus;perimeter=rhombusPerimeter;whiteSpace=wrap;html=1;align=center;fontFamily=Helvetica;fontSize=11;fontColor=default;labelBackgroundColor=default;" vertex="1" parent="1">
          <mxGeometry x="520" y="310" width="120" height="60" as="geometry" />
        </mxCell>
        <mxCell id="OXciILcsvzSkTtV1qYaF-58" style="edgeStyle=orthogonalEdgeStyle;rounded=0;orthogonalLoop=1;jettySize=auto;html=1;exitX=0.5;exitY=0;exitDx=0;exitDy=0;entryX=0.5;entryY=1;entryDx=0;entryDy=0;strokeColor=default;align=center;verticalAlign=middle;fontFamily=Helvetica;fontSize=11;fontColor=default;labelBackgroundColor=default;endArrow=none;endFill=0;" edge="1" parent="1" source="OXciILcsvzSkTtV1qYaF-30" target="OXciILcsvzSkTtV1qYaF-54">
          <mxGeometry relative="1" as="geometry" />
        </mxCell>
        <mxCell id="OXciILcsvzSkTtV1qYaF-30" value="Vendor" style="rounded=1;arcSize=10;whiteSpace=wrap;html=1;align=center;fontFamily=Helvetica;fontSize=11;fontColor=default;labelBackgroundColor=default;" vertex="1" parent="1">
          <mxGeometry x="530" y="220" width="100" height="40" as="geometry" />
        </mxCell>
        <mxCell id="OXciILcsvzSkTtV1qYaF-51" style="edgeStyle=orthogonalEdgeStyle;rounded=0;orthogonalLoop=1;jettySize=auto;html=1;exitX=0.5;exitY=0;exitDx=0;exitDy=0;entryX=0.5;entryY=1;entryDx=0;entryDy=0;strokeColor=default;align=center;verticalAlign=middle;fontFamily=Helvetica;fontSize=11;fontColor=default;labelBackgroundColor=default;endArrow=none;endFill=0;" edge="1" parent="1" source="OXciILcsvzSkTtV1qYaF-32" target="OXciILcsvzSkTtV1qYaF-48">
          <mxGeometry relative="1" as="geometry" />
        </mxCell>
        <mxCell id="OXciILcsvzSkTtV1qYaF-52" style="edgeStyle=orthogonalEdgeStyle;rounded=0;orthogonalLoop=1;jettySize=auto;html=1;exitX=0;exitY=0.5;exitDx=0;exitDy=0;entryX=0.5;entryY=1;entryDx=0;entryDy=0;strokeColor=default;align=center;verticalAlign=middle;fontFamily=Helvetica;fontSize=11;fontColor=default;labelBackgroundColor=default;endArrow=none;endFill=0;" edge="1" parent="1" source="OXciILcsvzSkTtV1qYaF-32" target="OXciILcsvzSkTtV1qYaF-50">
          <mxGeometry relative="1" as="geometry">
            <Array as="points">
              <mxPoint x="170" y="430" />
            </Array>
          </mxGeometry>
        </mxCell>
        <mxCell id="OXciILcsvzSkTtV1qYaF-32" value="Product Line" style="rounded=1;arcSize=10;whiteSpace=wrap;html=1;align=center;fontFamily=Helvetica;fontSize=11;fontColor=default;labelBackgroundColor=default;" vertex="1" parent="1">
          <mxGeometry x="230" y="410" width="100" height="40" as="geometry" />
        </mxCell>
        <mxCell id="OXciILcsvzSkTtV1qYaF-34" value="Date" style="ellipse;whiteSpace=wrap;html=1;align=center;fontFamily=Helvetica;fontSize=11;fontColor=default;labelBackgroundColor=default;" vertex="1" parent="1">
          <mxGeometry x="640" y="780" width="100" height="40" as="geometry" />
        </mxCell>
        <mxCell id="OXciILcsvzSkTtV1qYaF-35" value="Time" style="ellipse;whiteSpace=wrap;html=1;align=center;fontFamily=Helvetica;fontSize=11;fontColor=default;labelBackgroundColor=default;" vertex="1" parent="1">
          <mxGeometry x="450" y="820" width="100" height="40" as="geometry" />
        </mxCell>
        <mxCell id="OXciILcsvzSkTtV1qYaF-36" value="Method" style="ellipse;whiteSpace=wrap;html=1;align=center;fontFamily=Helvetica;fontSize=11;fontColor=default;labelBackgroundColor=default;" vertex="1" parent="1">
          <mxGeometry x="580" y="820" width="100" height="40" as="geometry" />
        </mxCell>
        <mxCell id="OXciILcsvzSkTtV1qYaF-37" value="Transaction ID" style="ellipse;whiteSpace=wrap;html=1;align=center;fontStyle=4;fontFamily=Helvetica;fontSize=11;fontColor=default;labelBackgroundColor=default;" vertex="1" parent="1">
          <mxGeometry x="390" y="780" width="100" height="40" as="geometry" />
        </mxCell>
        <mxCell id="OXciILcsvzSkTtV1qYaF-43" value="Total" style="ellipse;whiteSpace=wrap;html=1;align=center;dashed=1;fontFamily=Helvetica;fontSize=11;fontColor=default;labelBackgroundColor=default;" vertex="1" parent="1">
          <mxGeometry x="520" y="890" width="100" height="40" as="geometry" />
        </mxCell>
        <mxCell id="OXciILcsvzSkTtV1qYaF-48" value="Line_Title" style="ellipse;whiteSpace=wrap;html=1;align=center;fontFamily=Helvetica;fontSize=11;fontColor=default;labelBackgroundColor=default;" vertex="1" parent="1">
          <mxGeometry x="230" y="330" width="100" height="40" as="geometry" />
        </mxCell>
        <mxCell id="OXciILcsvzSkTtV1qYaF-50" value="Line ID" style="ellipse;whiteSpace=wrap;html=1;align=center;fontStyle=4;fontFamily=Helvetica;fontSize=11;fontColor=default;labelBackgroundColor=default;" vertex="1" parent="1">
          <mxGeometry x="120" y="380" width="100" height="40" as="geometry" />
        </mxCell>
        <mxCell id="OXciILcsvzSkTtV1qYaF-54" value="&lt;u&gt;Vendor ID&lt;/u&gt;" style="ellipse;whiteSpace=wrap;html=1;align=center;fontFamily=Helvetica;fontSize=11;fontColor=default;labelBackgroundColor=default;" vertex="1" parent="1">
          <mxGeometry x="365" y="140" width="100" height="40" as="geometry" />
        </mxCell>
        <mxCell id="OXciILcsvzSkTtV1qYaF-61" style="edgeStyle=orthogonalEdgeStyle;rounded=0;orthogonalLoop=1;jettySize=auto;html=1;exitX=0.5;exitY=1;exitDx=0;exitDy=0;entryX=0.5;entryY=0;entryDx=0;entryDy=0;strokeColor=default;align=center;verticalAlign=middle;fontFamily=Helvetica;fontSize=11;fontColor=default;labelBackgroundColor=default;endArrow=none;endFill=0;" edge="1" parent="1" source="OXciILcsvzSkTtV1qYaF-55" target="OXciILcsvzSkTtV1qYaF-30">
          <mxGeometry relative="1" as="geometry" />
        </mxCell>
        <mxCell id="OXciILcsvzSkTtV1qYaF-55" value="Vendor Address" style="ellipse;whiteSpace=wrap;html=1;align=center;fontFamily=Helvetica;fontSize=11;fontColor=default;labelBackgroundColor=default;" vertex="1" parent="1">
          <mxGeometry x="580" y="140" width="100" height="40" as="geometry" />
        </mxCell>
        <mxCell id="OXciILcsvzSkTtV1qYaF-59" style="edgeStyle=orthogonalEdgeStyle;rounded=0;orthogonalLoop=1;jettySize=auto;html=1;exitX=0.5;exitY=1;exitDx=0;exitDy=0;strokeColor=default;align=center;verticalAlign=middle;fontFamily=Helvetica;fontSize=11;fontColor=default;labelBackgroundColor=default;endArrow=none;endFill=0;" edge="1" parent="1" source="OXciILcsvzSkTtV1qYaF-56">
          <mxGeometry relative="1" as="geometry">
            <mxPoint x="580" y="220" as="targetPoint" />
          </mxGeometry>
        </mxCell>
        <mxCell id="OXciILcsvzSkTtV1qYaF-56" value="Vendor Name" style="ellipse;whiteSpace=wrap;html=1;align=center;fontFamily=Helvetica;fontSize=11;fontColor=default;labelBackgroundColor=default;" vertex="1" parent="1">
          <mxGeometry x="470" y="140" width="100" height="40" as="geometry" />
        </mxCell>
        <mxCell id="OXciILcsvzSkTtV1qYaF-62" style="edgeStyle=orthogonalEdgeStyle;rounded=0;orthogonalLoop=1;jettySize=auto;html=1;exitX=0.5;exitY=1;exitDx=0;exitDy=0;strokeColor=default;align=center;verticalAlign=middle;fontFamily=Helvetica;fontSize=11;fontColor=default;labelBackgroundColor=default;endArrow=none;endFill=0;" edge="1" parent="1" source="OXciILcsvzSkTtV1qYaF-57">
          <mxGeometry relative="1" as="geometry">
            <mxPoint x="580" y="220" as="targetPoint" />
          </mxGeometry>
        </mxCell>
        <mxCell id="OXciILcsvzSkTtV1qYaF-57" value="Vendor Phone" style="ellipse;whiteSpace=wrap;html=1;align=center;fontFamily=Helvetica;fontSize=11;fontColor=default;labelBackgroundColor=default;" vertex="1" parent="1">
          <mxGeometry x="690" y="140" width="100" height="40" as="geometry" />
        </mxCell>
        <mxCell id="OXciILcsvzSkTtV1qYaF-64" value="Business vs. Private vendor, include &quot;contract&quot; if applicable" style="text;strokeColor=none;fillColor=none;spacingLeft=4;spacingRight=4;overflow=hidden;rotatable=0;points=[[0,0.5],[1,0.5]];portConstraint=eastwest;fontSize=11;whiteSpace=wrap;html=1;fontFamily=Helvetica;fontColor=default;labelBackgroundColor=default;" vertex="1" parent="1">
          <mxGeometry x="482.5" y="90" width="175" height="30" as="geometry" />
        </mxCell>
        <mxCell id="OXciILcsvzSkTtV1qYaF-65" value="Product &quot;genre&quot; i.e.:&lt;br&gt;Liquor, food, drinks, produce, etc." style="text;strokeColor=none;fillColor=none;spacingLeft=4;spacingRight=4;overflow=hidden;rotatable=0;points=[[0,0.5],[1,0.5]];portConstraint=eastwest;fontSize=11;whiteSpace=wrap;html=1;fontFamily=Helvetica;fontColor=default;labelBackgroundColor=default;" vertex="1" parent="1">
          <mxGeometry x="110" y="460" width="175" height="30" as="geometry" />
        </mxCell>
        <mxCell id="OXciILcsvzSkTtV1qYaF-66" value="Loyalty program:&lt;br&gt;Member vs. Non-member" style="text;strokeColor=none;fillColor=none;spacingLeft=4;spacingRight=4;overflow=hidden;rotatable=0;points=[[0,0.5],[1,0.5]];portConstraint=eastwest;fontSize=11;whiteSpace=wrap;html=1;fontFamily=Helvetica;fontColor=default;labelBackgroundColor=default;" vertex="1" parent="1">
          <mxGeometry x="190" y="680" width="175" height="30" as="geometry" />
        </mxCell>
        <mxCell id="OXciILcsvzSkTtV1qYaF-68" value="Current stock" style="ellipse;whiteSpace=wrap;html=1;align=center;fontFamily=Helvetica;fontSize=11;fontColor=default;labelBackgroundColor=default;" vertex="1" parent="1">
          <mxGeometry x="680" y="330" width="100" height="40" as="geometry" />
        </mxCell>
        <mxCell id="OXciILcsvzSkTtV1qYaF-73" style="edgeStyle=orthogonalEdgeStyle;rounded=0;orthogonalLoop=1;jettySize=auto;html=1;exitX=0;exitY=0.5;exitDx=0;exitDy=0;strokeColor=default;align=center;verticalAlign=middle;fontFamily=Helvetica;fontSize=11;fontColor=default;labelBackgroundColor=default;endArrow=none;endFill=0;" edge="1" parent="1" source="OXciILcsvzSkTtV1qYaF-69">
          <mxGeometry relative="1" as="geometry">
            <mxPoint x="630" y="430" as="targetPoint" />
          </mxGeometry>
        </mxCell>
        <mxCell id="OXciILcsvzSkTtV1qYaF-69" value="&lt;u&gt;Product ID&lt;/u&gt;" style="ellipse;whiteSpace=wrap;html=1;align=center;fontFamily=Helvetica;fontSize=11;fontColor=default;labelBackgroundColor=default;" vertex="1" parent="1">
          <mxGeometry x="690" y="380" width="100" height="40" as="geometry" />
        </mxCell>
        <mxCell id="OXciILcsvzSkTtV1qYaF-74" style="edgeStyle=orthogonalEdgeStyle;rounded=0;orthogonalLoop=1;jettySize=auto;html=1;exitX=0;exitY=0.5;exitDx=0;exitDy=0;strokeColor=default;align=center;verticalAlign=middle;fontFamily=Helvetica;fontSize=11;fontColor=default;labelBackgroundColor=default;endArrow=none;endFill=0;" edge="1" parent="1" source="OXciILcsvzSkTtV1qYaF-70">
          <mxGeometry relative="1" as="geometry">
            <mxPoint x="630" y="430" as="targetPoint" />
          </mxGeometry>
        </mxCell>
        <mxCell id="OXciILcsvzSkTtV1qYaF-70" value="Description" style="ellipse;whiteSpace=wrap;html=1;align=center;fontFamily=Helvetica;fontSize=11;fontColor=default;labelBackgroundColor=default;" vertex="1" parent="1">
          <mxGeometry x="690" y="430" width="100" height="40" as="geometry" />
        </mxCell>
        <mxCell id="OXciILcsvzSkTtV1qYaF-75" style="edgeStyle=orthogonalEdgeStyle;rounded=0;orthogonalLoop=1;jettySize=auto;html=1;exitX=0;exitY=0.5;exitDx=0;exitDy=0;strokeColor=default;align=center;verticalAlign=middle;fontFamily=Helvetica;fontSize=11;fontColor=default;labelBackgroundColor=default;endArrow=none;endFill=0;" edge="1" parent="1" source="OXciILcsvzSkTtV1qYaF-71">
          <mxGeometry relative="1" as="geometry">
            <mxPoint x="630" y="430" as="targetPoint" />
          </mxGeometry>
        </mxCell>
        <mxCell id="OXciILcsvzSkTtV1qYaF-71" value="Unit price" style="ellipse;whiteSpace=wrap;html=1;align=center;fontFamily=Helvetica;fontSize=11;fontColor=default;labelBackgroundColor=default;" vertex="1" parent="1">
          <mxGeometry x="690" y="480" width="100" height="40" as="geometry" />
        </mxCell>
      </root>
    </mxGraphModel>
  </diagram>
</mxfile>
